<svg width="22" height="16" viewBox="0 0 22 16" fill="none" xmlns="http://www.w3.org/2000/svg">
<path d="M17.192 15.385V12.385H14.192V11.385H17.192V8.385H18.192V11.385H21.192V12.385H18.192V15.385H17.192ZM2.42299 16C1.96299 16 1.57865 15.846 1.26999 15.538C0.961319 15.23 0.807319 14.8457 0.807986 14.385V1.615C0.807986 1.155 0.961986 0.771 1.26999 0.463C1.57799 0.155 1.96232 0.000666667 2.42299 0H15.193C15.653 0 16.037 0.154333 16.345 0.463C16.653 0.771667 16.8073 1.156 16.808 1.616V6H15.808V3.385H1.80799V14.385C1.80799 14.5643 1.86565 14.7117 1.98099 14.827C2.09632 14.9423 2.24365 15 2.42299 15H14.808V16H2.42299Z" fill="black"/>
</svg>
