<svg width="17" height="17" viewBox="0 0 17 17" fill="none" xmlns="http://www.w3.org/2000/svg">
<path d="M11.6875 14.4394L10.3116 13.0635L9.5625 13.8125L11.6875 15.9375L15.9375 11.6875L15.1884 10.9385L11.6875 14.4394Z" fill="black"/>
<path d="M13.2812 2.65625H11.6875V2.125C11.6867 1.84347 11.5744 1.5737 11.3754 1.37463C11.1763 1.17555 10.9065 1.06334 10.625 1.0625H6.375C6.09347 1.06334 5.8237 1.17555 5.62463 1.37463C5.42555 1.5737 5.31334 1.84347 5.3125 2.125V2.65625H3.71875C3.43722 2.65709 3.16745 2.7693 2.96838 2.96838C2.7693 3.16745 2.65709 3.43722 2.65625 3.71875V14.875C2.65709 15.1565 2.7693 15.4263 2.96838 15.6254C3.16745 15.8244 3.43722 15.9367 3.71875 15.9375H8.5V14.875H3.71875V3.71875H5.3125V5.3125H11.6875V3.71875H13.2812V9.5625H14.3438V3.71875C14.3429 3.43722 14.2307 3.16745 14.0316 2.96838C13.8325 2.7693 13.5628 2.65709 13.2812 2.65625ZM10.625 4.25H6.375V2.125H10.625V4.25Z" fill="black"/>
</svg>
