<svg width="15" height="16" viewBox="0 0 15 16" fill="none" xmlns="http://www.w3.org/2000/svg">
<path d="M7.41962 2.41667H3.78871C2.67025 2.41667 2.11067 2.41667 1.70833 2.65537C1.53739 2.75519 1.38808 2.88812 1.26917 3.04637C1 3.40337 1 3.90133 1 4.89583C1 5.89033 1 6.38829 1.26917 6.74529C1.38463 6.89971 1.53408 7.03287 1.70833 7.13629C2.10996 7.375 2.66954 7.375 3.78942 7.375H10.9613C12.0805 7.375 12.64 7.375 13.0417 7.13629M13.75 5.25L9.5 1M13.75 1L9.5 5.25M13.75 12.6875C13.75 13.682 13.75 14.18 13.4808 14.537C13.3619 14.6952 13.2126 14.8281 13.0417 14.928C12.64 15.1667 12.0797 15.1667 10.9613 15.1667H3.78942C2.67025 15.1667 2.11067 15.1667 1.70833 14.928C1.53739 14.8281 1.38808 14.6952 1.26917 14.537C1 14.18 1 13.682 1 12.6875C1 11.693 1 11.195 1.26917 10.838C1.38463 10.6836 1.53408 10.5505 1.70833 10.447C2.10996 10.2083 2.66954 10.2083 3.78942 10.2083H10.9613C12.0805 10.2083 12.64 10.2083 13.0417 10.447C13.2159 10.5505 13.3654 10.6836 13.4808 10.838C13.75 11.195 13.75 11.693 13.75 12.6875Z" stroke="black" stroke-width="1.5" stroke-linecap="round" stroke-linejoin="round"/>
</svg>
