<svg width="23" height="23" viewBox="0 0 23 23" fill="none" xmlns="http://www.w3.org/2000/svg">
<path d="M11.0208 2.875C13.4354 2.875 15.751 3.83419 17.4584 5.54155C19.1658 7.24891 20.125 9.56459 20.125 11.9792C20.125 14.3937 19.1658 16.7094 17.4584 18.4168C15.751 20.1241 13.4354 21.0833 11.0208 21.0833C8.60622 21.0833 6.29054 20.1241 4.58317 18.4168C2.87581 16.7094 1.91663 14.3937 1.91663 11.9792C1.91663 9.56459 2.87581 7.24891 4.58317 5.54155C6.29054 3.83419 8.60622 2.875 11.0208 2.875ZM11.0208 3.83333C8.86038 3.83333 6.78846 4.69155 5.26082 6.21919C3.73318 7.74683 2.87496 9.81876 2.87496 11.9792C2.87496 14.1396 3.73318 16.2115 5.26082 17.7391C6.78846 19.2668 8.86038 20.125 11.0208 20.125C12.0905 20.125 13.1498 19.9143 14.1381 19.5049C15.1264 19.0956 16.0244 18.4956 16.7808 17.7391C17.5372 16.9827 18.1372 16.0847 18.5466 15.0964C18.9559 14.1081 19.1666 13.0489 19.1666 11.9792C19.1666 9.81876 18.3084 7.74683 16.7808 6.21919C15.2531 4.69155 13.1812 3.83333 11.0208 3.83333ZM10.5416 6.70833H11.5V11.9025L16.0041 14.4996L15.525 15.3333L10.5416 12.4583V6.70833Z" fill="black"/>
</svg>
